<mxfile host="app.diagrams.net" modified="2022-12-11T13:20:58.154Z" agent="5.0 (Windows NT 10.0; Win64; x64) AppleWebKit/537.36 (KHTML, like Gecko) Chrome/108.0.0.0 Safari/537.36" etag="4BgguXpKBgZSmhu8GKDE" version="20.6.2" type="github">
  <diagram id="pcZxvCQucMYmchMG9sZ_" name="Stránka-1">
    <mxGraphModel dx="1395" dy="1180" grid="0" gridSize="10" guides="1" tooltips="1" connect="1" arrows="1" fold="1" page="0" pageScale="1" pageWidth="827" pageHeight="1169" math="0" shadow="0">
      <root>
        <mxCell id="0" />
        <mxCell id="1" parent="0" />
        <mxCell id="Lb09quyxnqYmiFAlHfvU-1" value="Odesílatel" style="rounded=0;whiteSpace=wrap;html=1;" parent="1" vertex="1">
          <mxGeometry x="80" y="30" width="120" height="60" as="geometry" />
        </mxCell>
        <mxCell id="Lb09quyxnqYmiFAlHfvU-2" value="Úředník" style="rounded=0;whiteSpace=wrap;html=1;" parent="1" vertex="1">
          <mxGeometry x="293.5" y="30" width="120" height="60" as="geometry" />
        </mxCell>
        <mxCell id="Lb09quyxnqYmiFAlHfvU-3" value="Informační systém" style="rounded=0;whiteSpace=wrap;html=1;" parent="1" vertex="1">
          <mxGeometry x="508.5" y="30" width="120" height="60" as="geometry" />
        </mxCell>
        <mxCell id="Lb09quyxnqYmiFAlHfvU-8" value="" style="rounded=0;whiteSpace=wrap;html=1;" parent="1" vertex="1">
          <mxGeometry x="135" y="90" width="10" height="520" as="geometry" />
        </mxCell>
        <mxCell id="Lb09quyxnqYmiFAlHfvU-9" value="" style="rounded=0;whiteSpace=wrap;html=1;" parent="1" vertex="1">
          <mxGeometry x="348.5" y="90" width="10" height="520" as="geometry" />
        </mxCell>
        <mxCell id="Lb09quyxnqYmiFAlHfvU-10" value="" style="rounded=0;whiteSpace=wrap;html=1;" parent="1" vertex="1">
          <mxGeometry x="563.5" y="90" width="10" height="520" as="geometry" />
        </mxCell>
        <mxCell id="Lb09quyxnqYmiFAlHfvU-12" value="" style="endArrow=classic;html=1;rounded=0;exitX=1;exitY=0.059;exitDx=0;exitDy=0;exitPerimeter=0;" parent="1" source="Lb09quyxnqYmiFAlHfvU-8" edge="1">
          <mxGeometry width="50" height="50" relative="1" as="geometry">
            <mxPoint x="180" y="118" as="sourcePoint" />
            <mxPoint x="350" y="120" as="targetPoint" />
          </mxGeometry>
        </mxCell>
        <mxCell id="Lb09quyxnqYmiFAlHfvU-14" value="zadat objednávku" style="text;html=1;strokeColor=none;fillColor=none;align=center;verticalAlign=middle;whiteSpace=wrap;rounded=0;" parent="1" vertex="1">
          <mxGeometry x="190" y="100" width="120" height="20" as="geometry" />
        </mxCell>
        <mxCell id="Lb09quyxnqYmiFAlHfvU-29" value="" style="endArrow=classic;html=1;rounded=0;exitX=1;exitY=0.059;exitDx=0;exitDy=0;exitPerimeter=0;" parent="1" edge="1">
          <mxGeometry width="50" height="50" relative="1" as="geometry">
            <mxPoint x="358.5" y="304.09000000000003" as="sourcePoint" />
            <mxPoint x="563.5" y="304" as="targetPoint" />
          </mxGeometry>
        </mxCell>
        <mxCell id="Lb09quyxnqYmiFAlHfvU-30" value="evidovat platbu" style="text;html=1;strokeColor=none;fillColor=none;align=center;verticalAlign=middle;whiteSpace=wrap;rounded=0;" parent="1" vertex="1">
          <mxGeometry x="388.5" y="284" width="140" height="20" as="geometry" />
        </mxCell>
        <mxCell id="Lb09quyxnqYmiFAlHfvU-31" value="" style="endArrow=classic;html=1;rounded=0;exitX=-0.05;exitY=0.137;exitDx=0;exitDy=0;exitPerimeter=0;entryX=1;entryY=0.139;entryDx=0;entryDy=0;entryPerimeter=0;" parent="1" edge="1">
          <mxGeometry width="50" height="50" relative="1" as="geometry">
            <mxPoint x="560" y="342" as="sourcePoint" />
            <mxPoint x="357" y="343.02" as="targetPoint" />
          </mxGeometry>
        </mxCell>
        <mxCell id="Lb09quyxnqYmiFAlHfvU-32" value="Platba" style="text;html=1;strokeColor=none;fillColor=none;align=center;verticalAlign=middle;whiteSpace=wrap;rounded=0;" parent="1" vertex="1">
          <mxGeometry x="366.5" y="322" width="190" height="20" as="geometry" />
        </mxCell>
        <mxCell id="Lb09quyxnqYmiFAlHfvU-40" value="" style="endArrow=classic;html=1;rounded=0;entryX=1;entryY=0.139;entryDx=0;entryDy=0;entryPerimeter=0;exitX=1;exitY=1;exitDx=0;exitDy=0;" parent="1" source="Lb09quyxnqYmiFAlHfvU-41" edge="1">
          <mxGeometry width="50" height="50" relative="1" as="geometry">
            <mxPoint x="326.5" y="383" as="sourcePoint" />
            <mxPoint x="145" y="373.94" as="targetPoint" />
          </mxGeometry>
        </mxCell>
        <mxCell id="Lb09quyxnqYmiFAlHfvU-41" value="potvrzení platby" style="text;html=1;strokeColor=none;fillColor=none;align=center;verticalAlign=middle;whiteSpace=wrap;rounded=0;" parent="1" vertex="1">
          <mxGeometry x="151.5" y="353" width="196.5" height="20" as="geometry" />
        </mxCell>
        <mxCell id="HrPBx-P4qZrYaU5QGmyn-1" value="Vytvoření objednávky" style="text;html=1;strokeColor=none;fillColor=none;align=center;verticalAlign=middle;whiteSpace=wrap;rounded=0;" vertex="1" parent="1">
          <mxGeometry x="405" y="-22" width="120" height="20" as="geometry" />
        </mxCell>
        <mxCell id="HrPBx-P4qZrYaU5QGmyn-3" value="Řidič" style="rounded=0;whiteSpace=wrap;html=1;" vertex="1" parent="1">
          <mxGeometry x="724" y="30" width="120" height="60" as="geometry" />
        </mxCell>
        <mxCell id="HrPBx-P4qZrYaU5QGmyn-4" value="" style="rounded=0;whiteSpace=wrap;html=1;" vertex="1" parent="1">
          <mxGeometry x="779" y="90" width="10" height="520" as="geometry" />
        </mxCell>
        <mxCell id="HrPBx-P4qZrYaU5QGmyn-5" value="" style="endArrow=none;html=1;rounded=0;exitX=-0.183;exitY=0.121;exitDx=0;exitDy=0;exitPerimeter=0;entryX=1;entryY=0.139;entryDx=0;entryDy=0;entryPerimeter=0;startArrow=classic;startFill=1;endFill=0;" edge="1" parent="1">
          <mxGeometry width="50" height="50" relative="1" as="geometry">
            <mxPoint x="560.83" y="160.78500000000008" as="sourcePoint" />
            <mxPoint x="359.15999999999997" y="160.8900000000001" as="targetPoint" />
          </mxGeometry>
        </mxCell>
        <mxCell id="HrPBx-P4qZrYaU5QGmyn-6" value="zaregistrovat objednávku" style="text;html=1;strokeColor=none;fillColor=none;align=center;verticalAlign=middle;whiteSpace=wrap;rounded=0;" vertex="1" parent="1">
          <mxGeometry x="394" y="141" width="142" height="20" as="geometry" />
        </mxCell>
        <mxCell id="HrPBx-P4qZrYaU5QGmyn-7" value="" style="endArrow=classic;html=1;rounded=0;exitX=-0.05;exitY=0.137;exitDx=0;exitDy=0;exitPerimeter=0;entryX=1;entryY=0.139;entryDx=0;entryDy=0;entryPerimeter=0;" edge="1" parent="1">
          <mxGeometry width="50" height="50" relative="1" as="geometry">
            <mxPoint x="561.5" y="199.49" as="sourcePoint" />
            <mxPoint x="358.5" y="200.51" as="targetPoint" />
          </mxGeometry>
        </mxCell>
        <mxCell id="HrPBx-P4qZrYaU5QGmyn-8" value="Objednávka" style="text;html=1;strokeColor=none;fillColor=none;align=center;verticalAlign=middle;whiteSpace=wrap;rounded=0;" vertex="1" parent="1">
          <mxGeometry x="383.5" y="179.49" width="160" height="20" as="geometry" />
        </mxCell>
        <mxCell id="HrPBx-P4qZrYaU5QGmyn-9" value="" style="endArrow=classic;html=1;rounded=0;exitX=1;exitY=0.059;exitDx=0;exitDy=0;exitPerimeter=0;" edge="1" parent="1">
          <mxGeometry width="50" height="50" relative="1" as="geometry">
            <mxPoint x="143.5" y="279.09000000000015" as="sourcePoint" />
            <mxPoint x="348.5" y="279" as="targetPoint" />
          </mxGeometry>
        </mxCell>
        <mxCell id="HrPBx-P4qZrYaU5QGmyn-10" value="zaplať služby" style="text;html=1;strokeColor=none;fillColor=none;align=center;verticalAlign=middle;whiteSpace=wrap;rounded=0;" vertex="1" parent="1">
          <mxGeometry x="173.5" y="259" width="140" height="20" as="geometry" />
        </mxCell>
        <mxCell id="HrPBx-P4qZrYaU5QGmyn-11" value="" style="endArrow=classic;html=1;rounded=0;exitX=-0.05;exitY=0.137;exitDx=0;exitDy=0;exitPerimeter=0;entryX=1;entryY=0.139;entryDx=0;entryDy=0;entryPerimeter=0;" edge="1" parent="1">
          <mxGeometry width="50" height="50" relative="1" as="geometry">
            <mxPoint x="348" y="240" as="sourcePoint" />
            <mxPoint x="145" y="241.01999999999998" as="targetPoint" />
          </mxGeometry>
        </mxCell>
        <mxCell id="HrPBx-P4qZrYaU5QGmyn-12" value="žádost k zaplacení" style="text;html=1;strokeColor=none;fillColor=none;align=center;verticalAlign=middle;whiteSpace=wrap;rounded=0;" vertex="1" parent="1">
          <mxGeometry x="170" y="220" width="160" height="20" as="geometry" />
        </mxCell>
        <mxCell id="HrPBx-P4qZrYaU5QGmyn-13" value="" style="endArrow=classic;html=1;rounded=0;exitX=1;exitY=0.059;exitDx=0;exitDy=0;exitPerimeter=0;" edge="1" parent="1">
          <mxGeometry width="50" height="50" relative="1" as="geometry">
            <mxPoint x="573.5" y="407.4000000000001" as="sourcePoint" />
            <mxPoint x="778.4999999999998" y="407.30999999999995" as="targetPoint" />
          </mxGeometry>
        </mxCell>
        <mxCell id="HrPBx-P4qZrYaU5QGmyn-14" value="nová Objednávka" style="text;html=1;strokeColor=none;fillColor=none;align=center;verticalAlign=middle;whiteSpace=wrap;rounded=0;" vertex="1" parent="1">
          <mxGeometry x="630" y="387.31" width="100" height="20" as="geometry" />
        </mxCell>
        <mxCell id="HrPBx-P4qZrYaU5QGmyn-17" value="" style="endArrow=classic;html=1;rounded=0;exitX=-0.05;exitY=0.137;exitDx=0;exitDy=0;exitPerimeter=0;entryX=1;entryY=0.139;entryDx=0;entryDy=0;entryPerimeter=0;" edge="1" parent="1">
          <mxGeometry width="50" height="50" relative="1" as="geometry">
            <mxPoint x="776.5" y="447" as="sourcePoint" />
            <mxPoint x="573.5" y="448.02" as="targetPoint" />
          </mxGeometry>
        </mxCell>
        <mxCell id="HrPBx-P4qZrYaU5QGmyn-18" value="potvrzení přijetí do přepravy" style="text;html=1;strokeColor=none;fillColor=none;align=center;verticalAlign=middle;whiteSpace=wrap;rounded=0;" vertex="1" parent="1">
          <mxGeometry x="598.5" y="427" width="160" height="20" as="geometry" />
        </mxCell>
        <mxCell id="HrPBx-P4qZrYaU5QGmyn-19" value="" style="endArrow=classic;html=1;rounded=0;entryX=0.976;entryY=0.637;entryDx=0;entryDy=0;entryPerimeter=0;" edge="1" parent="1">
          <mxGeometry width="50" height="50" relative="1" as="geometry">
            <mxPoint x="562.12" y="473" as="sourcePoint" />
            <mxPoint x="144.88" y="473.24" as="targetPoint" />
          </mxGeometry>
        </mxCell>
        <mxCell id="HrPBx-P4qZrYaU5QGmyn-20" value="odeslat potvrzení" style="text;html=1;strokeColor=none;fillColor=none;align=center;verticalAlign=middle;whiteSpace=wrap;rounded=0;" vertex="1" parent="1">
          <mxGeometry x="376.12" y="453" width="160" height="20" as="geometry" />
        </mxCell>
        <mxCell id="HrPBx-P4qZrYaU5QGmyn-22" value="" style="endArrow=classic;html=1;rounded=0;entryX=0.976;entryY=0.637;entryDx=0;entryDy=0;entryPerimeter=0;" edge="1" parent="1">
          <mxGeometry width="50" height="50" relative="1" as="geometry">
            <mxPoint x="562.1199999999999" y="407.48" as="sourcePoint" />
            <mxPoint x="144.88000000000034" y="407.72" as="targetPoint" />
          </mxGeometry>
        </mxCell>
        <mxCell id="HrPBx-P4qZrYaU5QGmyn-23" value="stav objednávky" style="text;html=1;strokeColor=none;fillColor=none;align=center;verticalAlign=middle;whiteSpace=wrap;rounded=0;" vertex="1" parent="1">
          <mxGeometry x="376.12" y="387.48" width="160" height="20" as="geometry" />
        </mxCell>
      </root>
    </mxGraphModel>
  </diagram>
</mxfile>
